# xmcd CD database file
#
# Track frame offsets:
#	150
#	14947
#	38202
#	56057
#
# Disc length: 942 seconds
#
# Revision: 0
# Processed by: cddbd v1.5.1PL0 Copyright (c) Steve Scherf et al.
# Submitted via: CDex 1.51
#
DISCID=3503ac04
DTITLE=北原愛子 - DA DA DA
DYEAR=2004
DGENRE=JPop
TTITLE0=DA DA DA
TTITLE1=戻れないあの日
TTITLE2=会いたい 会えない
TTITLE3=DA DA DA -instrumental-
EXTD=YEAR: 2004
EXTT0=
EXTT1=
EXTT2=
EXTT3=
PLAYORDER=
